<?xml version="1.0" encoding="UTF-8"?>
<svg id="Layer_1" data-name="Layer 1" xmlns="http://www.w3.org/2000/svg" viewBox="0 0 65.24 63.32">
  <defs>
    <style>
      .cls-1 {
        fill: #fff;
        stroke-width: 0px;
      }
    </style>
  </defs>
  <path class="cls-1" d="M26.56,61.8h0c-9.55,5.02-20.7-3.09-18.88-13.72h0c.72-4.22-.68-8.53-3.74-11.52h0C-3.78,29.04.48,15.92,11.15,14.37h0c4.24-.62,7.9-3.28,9.8-7.12h0c4.77-9.67,18.56-9.67,23.33,0h0c1.9,3.84,5.56,6.5,9.8,7.12h0c10.67,1.55,14.93,14.67,7.21,22.19h0c-3.07,2.99-4.47,7.3-3.74,11.52h0c1.82,10.63-9.33,18.73-18.88,13.72h0c-3.79-1.99-8.32-1.99-12.11,0Z"/>
</svg>