<?xml version="1.0" encoding="UTF-8"?>
<svg xmlns="http://www.w3.org/2000/svg" viewBox="0 0 600 400">
  <defs>
    <style>
      .cls-1, .cls-2, .cls-3 {
        stroke-width: 0px;
      }

      .cls-2 {
        fill: #202020;
      }

      .cls-3 {
        fill: #8000a2;
      }
    </style>
  </defs>
  <g id="Layer_2" data-name="Layer 2">
    <rect class="cls-3" width="600" height="400"/>
  </g>
  <g id="Layer_1" data-name="Layer 1">
    <path class="cls-2" d="M208.94,57.96c3.12-4.11,6.11-7.01,9.25-9.83,3.17-2.79,6.53-5.52,11.16-8.33.63-.37,1.46-.77,2.4-1.28.47-.27,1.01-.45,1.57-.7.57-.22,1.14-.53,1.79-.73.64-.21,1.31-.44,2.02-.67.7-.24,1.46-.36,2.22-.56l.46-.11c.23-.05.45-.12.68-.15.46-.07.93-.13,1.39-.2.47-.07.94-.14,1.41-.21.48-.02.96-.05,1.45-.07.49-.03.98-.05,1.47-.08.49,0,.99.04,1.49.05.5.02,1.01.04,1.51.06.51.02,1.12.09,1.67.14,9.12.8,19,1.73,29.05,3.17,5.02.74,10.07,1.61,15.03,2.72,4.95,1.12,9.84,2.48,14.28,4.33l1.65.7,1.56.79c1.06.5,2.05,1.1,3.02,1.72,1.94,1.25,3.79,2.69,5.56,4.23,1.76,1.55,3.44,3.2,5.06,4.89.4.43.8.85,1.2,1.28l.59.64.5.57c.66.79,1.32,1.64,1.94,2.52,4.95,7.13,8.15,15,9.52,21.42.53,2.77.2,5.57-.49,7.92-.69,2.37-1.74,4.29-2.68,5.77-.51.71-.94,1.38-1.41,1.86-.43.52-.8.96-1.15,1.25-.33.32-.58.56-.75.73-.16.17-.27.22-.27.23,0,0-.37.29-1.08.85-.36.27-.84.52-1.37.87-.26.19-.59.28-.91.45-.33.13-.66.36-1.04.45-.37.12-.77.25-1.18.38-.42.07-.86.15-1.32.23-.2.05-.53.07-.84.1-.31.03-.63.06-.95.09-.65.04-1.32.09-2.02.13-2.79.14-5.98.18-9.41-.06-1.7-.12-3.5-.31-5.15-.64-.41-.09-.8-.17-1.15-.28-.2-.05-.31-.1-.47-.15-.1-.03-.44-.16-.66-.24-1-.36-2.02-.73-3.05-1.1-4.13-1.44-8.58-2.7-13.3-3.76-4.71-1.05-9.7-1.88-14.89-2.3-5.19-.42-10.59-.44-16.09.29l-2.06.29c-.69.1-1.37.28-2.06.42l-2.06.45-2.05.62c-.68.22-1.37.39-2.05.66l-2.04.83c-.68.28-1.36.54-2.02.93-.65.37-1.36.72-1.96,1.12-4.98,3.14-8.84,7.05-12.51,10.63-1.84,1.81-3.61,3.56-5.41,5.15-.89.82-1.8,1.54-2.69,2.28-.91.67-1.81,1.37-2.73,1.93-.45.3-.91.6-1.37.82-.47.24-.9.52-1.39.73-.49.21-.99.42-1.47.62-.45.17-.89.34-1.34.51-.41.08-.8.21-1.2.26-.41.03-.8.13-1.23.1h-.63c-.21,0-.43-.04-.65-.06-.22-.03-.43-.02-.65-.08l-.53-.1c-3.11-.62-6.3-2.18-9.23-3.34-1.48-.59-2.87-1.1-4.22-1.48-.68-.2-1.31-.36-1.88-.44-.57-.1-1.09-.19-1.55-.28-3.4-.5-6.8-.29-9.78.88-2.99,1.14-5.27,3.22-6.74,5.37-1.5,2.17-2.32,4.46-2.9,6.77-.56,2.32-.86,4.7-1.03,7.27,1.36-2.19,2.68-4.14,4.02-5.86,1.34-1.71,2.7-3.23,4.18-4.37,2.97-2.31,6-3.1,11.09-2.35.34.06.72.13,1.13.21.43.06.87.18,1.33.32.94.26,2.11.69,3.44,1.23,1.4.58,2.94,1.21,4.58,1.89,1.75.69,3.73,1.42,6.08,1.88l.81.15c.34.07.71.09,1.07.13.36.03.72.08,1.09.09h1.13c.75.03,1.52-.11,2.28-.19.76-.11,1.52-.32,2.27-.51.67-.24,1.39-.49,2.03-.75.62-.26,1.24-.53,1.87-.79.62-.27,1.23-.64,1.85-.96.63-.32,1.21-.69,1.79-1.07,1.19-.73,2.25-1.56,3.35-2.37,1.03-.85,2.09-1.7,3.06-2.59,1.99-1.77,3.85-3.6,5.68-5.4,3.66-3.6,7.25-7.13,11.15-9.56,3.74-2.26,8.5-3.56,13.22-4.21,4.77-.64,9.65-.64,14.4-.26,4.76.39,9.4,1.15,13.81,2.13,4.41.99,8.6,2.17,12.45,3.51.95.35,1.9.69,2.82,1.02l.78.28c.33.11.68.24.97.31.62.18,1.2.31,1.76.42,2.22.44,4.23.63,6.16.77,3.85.26,7.31.22,10.38.06.77-.04,1.51-.1,2.22-.15.36-.03.71-.06,1.05-.1.35-.03.66-.05,1.08-.13.78-.13,1.54-.25,2.25-.41.69-.22,1.34-.42,1.96-.62.63-.17,1.15-.49,1.68-.71.51-.25,1.02-.44,1.42-.71.83-.52,1.55-.93,2.08-1.33,1.04-.82,1.59-1.25,1.59-1.25,0,0,.15-.1.39-.33.24-.23.6-.58,1.07-1.03.49-.44,1.01-1.04,1.62-1.76.64-.7,1.24-1.59,1.94-2.57,1.31-2.02,2.71-4.62,3.68-7.89.95-3.25,1.5-7.23.67-11.65-.08-.58-.22-1.02-.33-1.51-.12-.48-.25-.97-.37-1.47-.29-.97-.55-1.98-.89-2.97-.64-2.01-1.43-4.03-2.31-6.08-1.78-4.1-4-8.26-6.88-12.38-.72-1.03-1.51-2.06-2.38-3.09l-.68-.78-.63-.68c-.42-.45-.85-.9-1.28-1.36-1.73-1.81-3.57-3.62-5.56-5.37-1.99-1.74-4.14-3.42-6.48-4.93-1.18-.75-2.38-1.47-3.65-2.08l-1.88-.95-1.91-.81c-5.12-2.13-10.36-3.56-15.59-4.75-5.24-1.18-10.47-2.08-15.63-2.83-10.32-1.48-20.34-2.42-29.49-3.22-.58-.05-1.11-.11-1.73-.14-.63-.03-1.25-.05-1.86-.08-.62-.02-1.23-.06-1.84-.06-.61.03-1.22.06-1.82.09-.6.03-1.2.07-1.8.1-.59.08-1.18.17-1.76.25-.58.09-1.16.17-1.73.25-.29.04-.56.12-.84.19l-.58.14c-.95.24-1.89.41-2.75.71-.86.29-1.69.57-2.48.83-.79.26-1.5.62-2.19.9-.68.31-1.35.55-1.91.87-1.15.62-2.14,1.13-2.91,1.58-5.6,3.46-9.1,7.36-11.6,11.4-2.47,4.07-4,8.38-4.83,13.47Z"/>
    <path class="cls-2" d="M404.23,295.13c4.12-3.1,7.38-6.12,10.26-9.79,2.84-3.69,5.4-8.05,7.24-14.25.15-.53.29-1.15.47-1.89.17-.74.42-1.59.56-2.64.15-1.05.43-2.24.51-3.68.06-.72.12-1.48.19-2.31,0-.83,0-1.72,0-2.67.04-.96-.12-1.97-.19-3.01-.06-.52-.08-1.06-.17-1.59-.1-.54-.2-1.08-.3-1.63-.11-.55-.21-1.11-.32-1.68-.16-.55-.32-1.1-.48-1.66-.17-.56-.33-1.13-.5-1.7-.18-.55-.37-1.1-.55-1.66-1.58-4.57-3.97-9.06-6.1-13.47-1.06-2.21-2.06-4.43-2.83-6.66-.77-2.21-1.33-4.51-1.5-6.61-.14-2.15.03-4.49.48-6.69.45-2.23,1.15-4.42,2.03-6.57,1.76-4.28,4.07-8.35,6.16-12.19,2.1-3.84,4.01-7.44,5.4-10.62,1.41-3.17,2.37-5.87,2.94-7.78.31-.94.49-1.7.63-2.2.13-.51.2-.78.2-.78,0,0,.07-.22.16-.65.09-.43.23-1.07.41-1.9.18-.82.32-1.85.53-3.04.13-1.2.34-2.56.41-4.08.21-3.02.16-6.74-.31-10.62-.34-3.88-1.15-8.41-2.72-12.92-.74-2.28-1.79-4.53-2.93-6.77-1.23-2.19-2.57-4.4-4.19-6.42-3.14-4.12-7.09-7.61-11.21-10.55-8.17-5.62-16.58-9.73-23.19-13.32-3.97-2.14-7-4-9.3-5.54-2.26-1.58-3.87-2.79-4.87-3.71-4.18-3.59-6.9-6.77-9.43-10.09-.58-.86-1.18-1.71-1.8-2.57-.62-.86-1.08-1.81-1.68-2.75-.29-.47-.58-.95-.88-1.44-.29-.49-.51-1.02-.78-1.54-.53-1.07-1.07-2.17-1.64-3.32-.02,1.3-.05,2.54-.07,3.74,0,.61-.03,1.23.02,1.82.07.59.13,1.18.2,1.76.17,1.16.25,2.36.54,3.49.3,1.13.63,2.27.99,3.43,1.65,4.51,4.51,9.09,9.41,13.35,1.18,1.1,3.02,2.5,5.56,4.28,2.56,1.73,5.87,3.76,9.96,5.97,6.82,3.7,14.96,7.71,22.43,12.85,3.59,2.55,6.92,5.51,9.52,8.93,1.35,1.67,2.44,3.5,3.47,5.31.94,1.86,1.82,3.72,2.44,5.63.68,1.89,1.15,3.81,1.54,5.67.19.93.32,1.87.48,2.77.12.93.21,1.85.32,2.74.43,3.61.46,6.67.29,9.29-.05,1.3-.24,2.47-.34,3.49-.18,1.02-.3,1.89-.45,2.6-.15.71-.27,1.26-.35,1.63-.08.37-.14.56-.14.56,0,0-.06.23-.18.67-.12.44-.28,1.09-.55,1.91-.49,1.66-1.34,4.02-2.61,6.89-1.27,2.88-3.04,6.24-5.13,10.03-2.07,3.8-4.51,8.04-6.56,13-2.04,4.94-3.49,10.75-3.08,16.8.54,6.16,2.86,11.42,5.08,16.09,2.26,4.66,4.43,8.8,5.77,12.68.17.5.33.99.49,1.48.14.47.28.94.41,1.4.14.46.27.91.4,1.36.08.45.17.89.25,1.33.08.44.17.86.25,1.28.07.42.08.85.13,1.26.06.83.2,1.62.16,2.4,0,.77,0,1.48,0,2.15-.06.67-.11,1.3-.16,1.89-.05,1.17-.3,2.18-.42,3.05-.11.87-.32,1.6-.46,2.23-.15.63-.26,1.15-.38,1.6-1.52,5.31-3.15,9.45-4.68,13.49-1.57,4.03-3.1,7.96-5.29,12.64Z"/>
    <path class="cls-2" d="M439.56,214.71c2.58,4.47,4.63,8.2,6.71,12.02,2.07,3.81,4.3,7.69,6.4,12.72.17.43.37.92.6,1.52.2.6.42,1.3.69,2.13.43,1.66,1.02,3.89,1.16,6.82.09,2.15-.54,5.26-2.18,8.67-.8,1.71-1.79,3.48-2.86,5.29-.55.92-1.1,1.84-1.64,2.74-.28.47-.56.94-.83,1.4l-.41.71-.45.85c-.58,1.15-1.08,2.39-1.38,3.74-.31,1.34-.37,2.74-.26,3.97.23,2.48.89,4.22,1.33,5.58.9,2.57,1.46,4.16,1.46,4.16,0,0,.45,1.3,1.08,3.44.64,2.14,1.4,5.12,1.93,8.46.51,3.33.75,7.07.44,10.63-.28,3.57-1.04,6.94-1.97,9.64-1.31,3.94-3.06,6.84-4.54,9.04-1.5,2.17-2.89,3.77-3.78,4.84-3.75,4.33-6.9,7.83-9.55,11.53-2.63,3.68-4.94,7.53-6.82,12.35,7.86-6.63,13.89-9.44,22.26-18.77,1.02-1.2,2.49-2.85,4.34-5.5,1.79-2.64,3.92-6.18,5.52-10.95,1.13-3.26,2.04-7.33,2.37-11.57.36-4.23.07-8.59-.52-12.44-.61-3.84-1.48-7.15-2.18-9.48-.7-2.33-1.18-3.71-1.18-3.71,0,0-.56-1.61-1.46-4.2-.42-1.22-.84-2.58-.93-3.69-.04-.56-.02-1.06.11-1.62.13-.56.38-1.2.72-1.89l.27-.52.38-.64c.26-.44.52-.88.79-1.32.55-.92,1.11-1.84,1.67-2.77,1.13-1.9,2.25-3.89,3.22-5.96.97-2.06,1.77-4.21,2.27-6.33.5-2.12.7-4.16.63-5.96-.19-3.94-.94-6.66-1.49-8.74-.34-1.01-.62-1.87-.86-2.6-.29-.71-.53-1.31-.74-1.82-2.59-6.01-5.77-9.95-9.06-13.21-3.32-3.26-6.9-5.8-11.26-8.54Z"/>
    <path class="cls-2" d="M281.98,276.07c2.7,1.6,4.8,3.42,7.45,4.77,1.33.67,2.75,1.3,4.62,1.49l.71.05c.26-.01.52-.03.79-.06.52-.02,1.08-.17,1.65-.36.57-.14,1.11-.53,1.65-.85.51-.36.94-.82,1.39-1.27l.27-.44c1.17-1.86,1.94-4.01,2.38-6.26.43-2.25.56-4.61.54-7.02-.02-1.06,0-2.36-.11-4.42-.09-1.99-.25-4.53-.47-7.97-.27-4.21-.68-9.84-.93-15.86-.13-3.01-.17-6.02-.08-9.12.08-3.08.26-6.18.46-9.16.46-6.02.87-11.52,1.18-15.51.29-4.04.39-6.59.39-6.59,0,0,.02-.53.06-1.5.03-.99.11-2.29.1-4.21-.01-.95-.04-2.04-.22-3.3-.19-1.26-.46-2.72-1.3-4.35-.19-.4-.47-.81-.73-1.22-.26-.32-.52-.65-.79-.98-.26-.34-.58-.63-.89-.93-.31-.3-.63-.6-.99-.85-1.37-1.1-2.96-1.88-4.52-2.42-3.14-1.09-6.24-1.38-9.04-1.71-1.43-.16-2.66-.33-4.05-.58-1.44-.24-2.74-.48-4.08-.78-1.32-.29-2.61-.62-3.85-.99-.62-.18-1.23-.38-1.82-.58-.61-.21-1.14-.4-1.8-.67-1.19-.46-2.15-.84-3.15-1.39-.99-.51-1.94-1.09-2.87-1.67-3.65-2.34-6.85-4.67-9.9-6.13-.75-.38-1.51-.68-2.22-.97-.77-.25-1.55-.56-2.17-.65-.65-.12-1.24-.24-1.78-.34-.52-.06-.99-.12-1.4-.17-3.4-.36-6.39-.09-9.05.45-2.66.55-5,1.37-7.17,2.37-4.29,2.05-7.95,4.75-11.48,8.52,4.88-1.67,8.99-2.41,13.17-3.05,2.1-.29,4.21-.54,6.46-.67,2.25-.13,4.64-.16,7.2.14.32.04.67.08,1.06.13.36.07.75.15,1.17.23.46.06.78.24,1.22.37.48.2.99.4,1.55.69,2.26,1.07,5.1,3.11,9.15,5.73,1.03.65,2.16,1.33,3.41,1.99,1.22.67,2.69,1.28,4.01,1.78.59.23,1.33.51,2.03.75.71.24,1.42.47,2.14.69,1.45.43,2.92.8,4.4,1.13,1.47.32,3.01.61,4.42.84,1.45.27,3.08.49,4.5.64,2.87.32,5.43.63,7.33,1.31.96.33,1.73.73,2.3,1.2.17.1.29.24.42.36.13.13.27.23.37.38.11.14.22.27.33.4.04.09.11.15.16.27.47.85.66,2.64.65,4.12,0,1.5-.06,2.96-.09,3.86-.03.93-.05,1.44-.05,1.44,0,0-.1,2.43-.39,6.39-.31,4-.74,9.5-1.21,15.53-.21,3.05-.4,6.25-.49,9.49-.1,3.22-.05,6.57.08,9.66.26,6.2.68,11.85.96,16.05.23,3.41.39,5.95.48,7.83.1,1.81.1,3.18.13,4.15.1,4.48-.07,7.72-.91,10.24l.27-.44c-.05.05-.05.18-.09.26-.06.03-.03.19-.14.23-.07.07-.15.19-.32.24l-.22.13-.31.08c-.85.24-2.08.24-3.35.14-2.56-.18-5.42-.87-8.59-1.02Z"/>
    <path class="cls-2" d="M387.5,217.04c-.02,1.29-.04,2.52-.06,3.72,0,.59-.01,1.17-.02,1.75-.03.57-.06,1.14-.09,1.71-.05,1.12-.09,2.21-.11,3.3-.09,1.09-.15,2.17-.2,3.25-.26,4.33-.39,8.8-.99,14.46-.03.77-.21,1.72-.36,2.84-.16,1.12-.31,2.4-.63,3.8-.28,1.41-.56,2.95-1.03,4.58-.12.47-.25.94-.37,1.42-.15.58-.29,1.16-.49,1.73-.37,1.15-.75,2.32-1.13,3.51-.44,1.17-.89,2.35-1.35,3.55-.45,1.2-1.02,2.38-1.53,3.6-2.17,4.82-4.82,9.7-7.88,14.58-3.2,4.94-6.49,10.02-9.83,15.17-6.69,10.32-13.62,20.84-21.04,30.52-1.85,2.43-3.75,4.78-5.66,7.07-.95,1.15-1.93,2.23-2.88,3.34-.97,1.05-1.99,2.13-3.01,3.18-4.08,4.2-8.25,8.14-12.39,11.73-1.03.9-2.07,1.77-3.1,2.63-.52.42-1.07.88-1.55,1.26-.48.38-.97.75-1.44,1.12-1.92,1.38-3.86,2.46-5.77,3.09-1.9.63-3.74.79-5.51.56-1.77-.23-3.49-.91-5.11-1.77-.82-.39-1.58-.95-2.35-1.43-.74-.57-1.48-1.06-2.16-1.66-.69-.58-1.36-1.14-2-1.76-.66-.62-1.3-1.23-1.93-1.81-2.58-2.45-4.82-4.54-6.66-6.25-3.69-3.4-5.77-5.31-5.77-5.31,0,0-2.08-1.9-5.77-5.28-3.68-3.38-8.99-8.2-15.23-14.2-6.22-6.02-13.44-13.19-20.5-21.61-1.8-2.08-3.51-4.29-5.28-6.52-1.69-2.28-3.44-4.57-5.14-7-3.4-4.81-6.72-9.82-9.7-15.05-2.98-5.23-5.63-10.68-7.58-16.3l-.7-2.11-.63-2.14c-.42-1.46-.79-2.91-1.13-4.36-.68-2.92-1.23-5.88-1.69-8.85-.92-5.93-1.55-11.93-2.01-17.71-.22-2.89-.38-5.73-.45-8.51-.04-1.39-.06-2.77-.05-4.13,0-.68,0-1.36.03-2.03.02-.59.03-1.18.05-1.77.14-3.83.45-7.29.82-10.21.39-2.96.7-5.35.91-6.94,1.65-11.77,1.53-18.7.67-28.99-4.06,9.48-6.59,15.94-8.39,27.89-.24,1.63-.58,4.04-.96,7.09-.39,3.07-.74,6.8-.89,10.88-.02.63-.03,1.25-.05,1.89-.02.72-.02,1.43-.03,2.16-.01,1.44,0,2.9.05,4.37.08,2.94.24,5.91.47,8.91.47,5.99,1.11,12.08,2.08,18.33.49,3.12,1.07,6.26,1.81,9.41.37,1.57.77,3.15,1.21,4.7l.69,2.36c.24.78.52,1.56.78,2.34,2.16,6.22,5.03,12.08,8.18,17.61,3.16,5.53,6.62,10.75,10.12,15.7,1.73,2.46,3.56,4.87,5.33,7.25,1.85,2.31,3.63,4.62,5.5,6.78,7.34,8.74,14.75,16.08,21.08,22.19,6.35,6.1,11.69,10.93,15.38,14.32,3.69,3.37,5.77,5.27,5.77,5.27,0,0,2.06,1.9,5.73,5.28,1.83,1.69,4.04,3.76,6.55,6.16.66.62,1.33,1.26,2.03,1.92.71.69,1.51,1.37,2.34,2.06.8.71,1.75,1.35,2.67,2.05,1,.63,1.97,1.33,3.12,1.9,2.22,1.19,4.8,2.24,7.74,2.63,2.92.41,6.09.1,8.99-.86,2.91-.95,5.56-2.47,7.97-4.21.58-.45,1.16-.9,1.75-1.35.54-.44,1.08-.87,1.62-1.31,1.08-.9,2.16-1.81,3.24-2.75,4.32-3.75,8.64-7.81,12.88-12.19,1.06-1.09,2.11-2.2,3.19-3.37,1.02-1.18,2.08-2.36,3.07-3.56,2-2.39,3.98-4.84,5.88-7.34,7.67-9.99,14.69-20.67,21.41-31.02,3.36-5.19,6.67-10.3,9.89-15.28,3.21-5.13,6.05-10.35,8.39-15.55.56-1.31,1.17-2.58,1.66-3.89.5-1.31.99-2.6,1.47-3.87.42-1.3.83-2.58,1.24-3.85.22-.63.38-1.27.54-1.9.14-.52.27-1.04.41-1.56.51-1.79.82-3.5,1.13-5.06.34-1.55.51-2.97.68-4.21.16-1.24.34-2.29.37-3.15.6-6.28,0-11.26-1.08-15.77-.29-1.13-.59-2.23-.91-3.33-.39-1.08-.79-2.16-1.21-3.24-.22-.54-.43-1.08-.65-1.63-.25-.53-.51-1.08-.77-1.62-.54-1.08-1.09-2.19-1.66-3.35Z"/>
    <path class="cls-2" d="M195.53,332.31c-4.9-1.64-8.62-3.51-12.39-5.49-3.75-2.03-7.59-4.16-12.23-7.33-.77-.56-1.82-1.24-3.25-2.38-1.45-1.1-3.27-2.67-5.6-4.91-1.68-1.71-3.65-3.8-5.53-6.2-1.87-2.42-3.83-5.29-5.42-8.26-1.61-2.99-2.82-6.21-3.16-9.32-.1-.78-.11-1.54-.09-2.29l.03-.56v-.1s.01-.03.03-.07l.27-1c.45-1.36,1.17-2.69,2.05-3.99,1.76-2.6,4.16-4.99,6.38-7.35,2.23-2.33,4.35-4.74,5.86-7.04.34-.51.66-.99.97-1.44.36-.52.69-1.03.95-1.52.58-.96.99-1.84,1.33-2.56.34-.71.53-1.3.7-1.68.15-.39.23-.59.23-.59,0,0,.22-.7.62-1.97.32-1.29.79-3.17.98-5.54.19-2.36.16-5.2-.37-8.27-.27-1.53-.61-3.13-1.12-4.74-.23-.82-.54-1.61-.82-2.43-.3-.77-.61-1.55-.93-2.34-2.59-6.32-6.32-12.7-9.67-18.71-1.68-3.01-3.26-5.96-4.6-8.79-.68-1.42-1.28-2.79-1.84-4.15-.56-1.38-1.05-2.69-1.5-3.92-1.42-4.04-2.09-7.45-2.52-10.18-.23-1.36-.35-2.56-.45-3.58-.13-1.02-.15-1.89-.21-2.59-.36-5.67-.36-10.19-.55-14.56-.15-4.37-.38-8.61-.47-13.77-2.34,4.6-4.03,8.65-5.21,13.12-1.14,4.46-1.89,9.36-1.56,15.66.05.78.08,1.73.21,2.88.11,1.15.24,2.48.49,4.02.47,3.06,1.22,6.97,2.85,11.58.5,1.41,1.05,2.86,1.64,4.33.61,1.48,1.28,3.01,2.01,4.54,1.45,3.06,3.12,6.17,4.84,9.24,3.44,6.14,6.97,12.2,9.3,17.88.28.71.56,1.42.84,2.11.22.66.49,1.31.67,1.96.42,1.28.67,2.54.89,3.74.42,2.4.43,4.57.3,6.34-.13,1.78-.49,3.16-.71,4.11-.29.93-.45,1.44-.45,1.44,0,0-.22.6-.68,1.65-.25.52-.54,1.16-.97,1.85-.19.36-.43.72-.69,1.1-.31.45-.63.93-.97,1.44-1.17,1.77-2.87,3.73-5.06,6.02-1.08,1.14-2.27,2.37-3.5,3.73-1.23,1.35-2.5,2.85-3.68,4.6-1.18,1.74-2.29,3.72-3.02,5.96-.18.58-.31,1.11-.48,1.75-.04.19-.11.37-.14.62l-.04.61-.05.87c-.04,1.16-.01,2.32.12,3.45.51,4.54,2.14,8.63,4.03,12.17,1.92,3.57,4.01,6.61,6.15,9.39,2.16,2.77,4.32,5.05,6.23,6.97,2.61,2.52,4.66,4.27,6.3,5.51,1.61,1.28,2.8,2.05,3.68,2.67,5.3,3.53,10.1,5.33,14.72,6.27,4.64.9,9.18.93,14.27.09Z"/>
    <path class="cls-2" d="M389.19,161.06c-3.84-2.41-6.43-3.73-11.02-3.68-2.48.04-9.97.22-16.92,1-3.47.39-6.8.88-9.25,1.41-1.23.22-2.23.49-2.94.65-.7.17-1.1.26-1.1.26,0,0-.39.11-1.1.3-.7.19-1.71.45-2.92.86-1.25.4-2.56.85-4.04,1.38-1.47.53-3.07,1.13-4.7,1.78-3.25,1.29-6.63,2.85-9.44,4.42-1.41.79-2.65,1.55-3.72,2.29-.52.34-1.04.74-1.45,1.06-.41.32-.74.6-1.01.83-1.94,1.71-3,3.39-3.67,5.13-.68,1.75-.95,3.59-1.22,5.84,4.39-1.28,6.97-2.49,9.95-5.02.2-.17.46-.38.77-.61.31-.23.61-.46,1.05-.75.83-.56,1.91-1.23,3.13-1.9,2.44-1.36,5.5-2.78,8.55-4,1.52-.61,3.03-1.18,4.43-1.69,1.4-.51,2.75-.98,3.78-1.31,1.05-.37,1.95-.6,2.57-.77.62-.17.97-.27.97-.27,0,0,.35-.09.98-.23.63-.13,1.53-.38,2.65-.57,2.22-.47,5.31-.91,8.57-1.27,6.53-.72,13.84-.9,16.28-1,4.5-.17,7.07-1.55,10.82-4.12Z"/>
    <path class="cls-2" d="M378.21,187.71c-2.42-2.76-4.24-4.27-7.57-4.49-1.8-.13-7.25-.28-12.26.1-2.5.15-4.89.46-6.65.69-1.76.27-2.89.47-2.89.47,0,0-.28.05-.79.14-.5.1-1.23.21-2.1.41-1.76.36-4.1.93-6.59,1.69-2.69.86-5.26,2.16-7.28,3.47-2.03,1.3-3.51,2.54-4.23,3.18-2.64,2.37-3.04,4.8-2.96,8.46,3.67-.37,5.77-.65,8.02-2.51.61-.5,1.83-1.51,3.41-2.5,1.56-1.01,3.53-1.99,5.44-2.61,2.12-.65,4.25-1.19,5.82-1.52.78-.19,1.44-.29,1.89-.38.45-.09.71-.13.71-.13,0,0,1.03-.17,2.63-.41,1.61-.2,3.79-.47,6.1-.6,4.61-.33,9.7-.2,11.39-.14,3.12.09,4.96-1.11,7.91-3.3Z"/>
    <path class="cls-2" d="M225.33,201.04c3.02,1.75,4.78,2.71,7.52,2.25,1.48-.26,5.96-.97,10.11-1.21,4.15-.28,7.88-.11,7.88-.11,0,0,.23.01.65.04.41.02,1,.05,1.74.12.74.07,1.6.14,2.54.23.91.1,1.89.22,2.84.38,1.92.32,3.75.84,5.09,1.46,1.36.61,2.25,1.34,2.71,1.7,1.61,1.39,3.38,1.55,6.74,2.59.26-.81.48-1.6.59-2.35.08-.74.12-1.47,0-2.17-.23-1.38-.86-2.76-2.25-3.98-.74-.65-2.33-1.94-4.49-2.91-2.15-1-4.73-1.69-7.1-2.08-1.19-.2-2.32-.33-3.36-.43-1.01-.08-1.94-.16-2.73-.23-.79-.07-1.45-.1-1.92-.12-.46-.02-.72-.03-.72-.03,0,0-4.17-.22-8.7.07-4.54.24-9.43,1.02-11.04,1.37-2.98.62-4.44,2.36-6.11,5.42Z"/>
    <path class="cls-2" d="M311.18,318.25c-2.4.94-4.58,1.93-6.64,2.84-2.05.9-4.03,1.8-5.84,2.28-.89.26-1.75.37-2.18.25-.24-.05-.26-.13-.31-.2-.04,0-.02-.1-.04-.11.04.05-.19-.21-.34-.35-.63-.67-1.22-1.44-1.7-2.27-.47-.82-.83-1.75-.94-2.48-.03-.23-.05-.51-.02-.66.02-.07.02-.15.04-.15,0-.01,0,0,0,0-.03.02.03-.04.09-.12.48-.63,2.25-1.93,4.93-2.79,1.06-.34,2.54-.72,4.13-.85.4-.04.8-.05,1.2-.06.49,0,.98,0,1.48,0,1.02,0,2.03,0,3,0,3.89-.01,7.1-.02,7.1-.02,0,0,.17,0,.47,0,.08,0,.16,0,.25,0h.02s0,0,0,0h0c.95-3.2-2.12,7.16,2.13-7.18h-.01s-.05-.04-.05-.04l-.1-.06c-.05-.03-.11-.07-.17-.1-.22-.13-.47-.28-.75-.44-1.09-.62-2.6-1.4-4.4-2.12-1.8-.72-3.89-1.37-6.09-1.71-2.17-.36-4.52-.34-6.4.01-4.48.84-7.68,2.58-9.72,3.37-.26.11-.49.2-.68.26-.1.04-.2.07-.3.11l-.22.06-.2.06s-.06,0-.1,0c-.02,0-.07.02-.07.02h.01s.02.17.02.17c0,.12.01.24,0,.36,0,.12-.01.24-.03.36l-.03.18c0,.05,0,.05,0,.08,0,.09-.01.19-.04.29-.01.05-.03.1-.05.15l-.03.07h0s.02-.03.02-.03c0,0,0,0,0,0,.04-.08.1-.15.15-.22.11-.13.22-.21.32-.27l-.37-1.51c-2.42-1.31-3.14-1.71-3.77-2.05-.56-.47-.97-.13-1.41-.02-.44.14-.87.28-1.3.41-.76.25-1.5.5-2.24.74l-.72.24-.19.06s-.09.11-.13.16c-.09.12-.17.2-.25.29l-.49.53-.2.19c-.25.25-.53.47-.81.69-.57.43-1.2.81-1.87,1.12-.14.08-.39.18-.62.29l-.68.31c-.43.21-.86.42-1.29.62-1.66.83-3.18,1.67-4.6,2.35-.17.08-.36.18-.52.24-.21.08-.21.13-.33.19-.19.11-.41.22-.66.29-.24.06-.54.12-.8.03-.26-.09-.43-.28-.67-.47-.09-.06-.29-.24-.47-.42-.19-.16-.37-.32-.56-.47-.35-.28-.71-.56-1.08-.85-.34-.28-.65-.56-.84-.92-.21-.35-.23-.84-.07-1.33-.36.35-.65.87-.64,1.47,0,.59.21,1.13.4,1.6.21.48.42.9.61,1.31.09.2.17.4.26.59.07.19.13.35.26.67.12.3.25.59.38.88.16.26.31.55.54.78.43.5,1.04.73,1.64.94.31.09.63.14.96.2l1.01.05c.32.02.75-.04.98-.03.27,0,.51-.03.77-.05,2.01-.19,3.82-.59,5.63-1.01.44-.11.89-.21,1.34-.32l.66-.16c.22-.05.42-.1.74-.19,1.16-.32,2.34-.79,3.5-1.45.58-.34,1.16-.72,1.71-1.16l.41-.33.08-.06c.05-.03.03,0,.04,0,.02.01.03.05.03.05h0c.33.19.8.44,1.51.83l-1.1-.89c.21.23.46.47.74.72.14.12.29.25.45.37.19.12.39.24.6.35.43.23.9.45,1.39.55.5.13,1.05.22,1.49.21,1.96.02,3.34-.55,4.66-1.05,2.59-1.05,5.14-2.36,8.19-2.92,1.06-.18,2.32-.21,3.8.02,1.46.22,3.02.69,4.41,1.23,1.39.55,2.61,1.17,3.43,1.63.2.11.37.22.53.31l.1.06.03.02h.01s0,0,0,0c4.25-14.34,1.18-3.97,2.13-7.18h-.02c-.09,0-.18,0-.25,0-.31,0-.47,0-.47,0,0,0-3.21,0-7.1-.02-.97,0-1.99,0-3,0-.52,0-1.05,0-1.57,0-.61.01-1.21.03-1.79.09-2.34.19-4.4.73-5.91,1.23-1.91.64-3.53,1.4-4.92,2.25-1.39.86-2.57,1.8-3.57,3-.47.55-1.04,1.43-1.3,2.16-.32.76-.45,1.44-.54,2.06-.16,1.24-.05,2.15.06,2.92.38,2.23,1.25,3.93,2.21,5.38.99,1.44,2.13,2.62,3.35,3.59.46.37,1.61,1.21,2.66,1.51,1.06.37,2.24.43,3.14.31,1.89-.24,3.19-.96,4.29-1.66,2.22-1.43,3.77-3.08,5.33-4.79,1.55-1.72,3.01-3.55,4.7-5.51Z"/>
    <g>
      <path class="cls-1" d="M243.94,202.72c-3.29,4.56-1.02,12.06,4.49,13.66,4.23,1.32,9.03-1.59,10.5-5.91,3.26-9.18-9.09-15.75-14.87-7.91l-.11.16Z"/>
      <path class="cls-2" d="M243.94,202.72c-1.76.32-3.21,1.29-4.15,2.62-.93,1.34-1.38,3.11-.97,5.2.25,1.1.8,3.4,2.67,5.68.9,1.14,2.16,2.25,3.68,3.05,1.51.79,3.19,1.29,4.98,1.35,3.55.11,6.45-1.42,8.16-2.82.88-.7,1.51-1.39,1.93-1.88.39-.51.62-.8.62-.8,0,0,.22-.29.56-.85.35-.55.79-1.4,1.17-2.46.35-1.02.7-2.33.77-3.85.07-1.51-.17-3.21-.79-4.79-1.22-3.23-3.92-5.66-6.52-6.83-2.62-1.22-5.13-1.25-6.33-1.12-2.26.24-3.91,1.31-4.84,2.69-.94,1.38-1.22,3.07-.94,4.82,1.77-.31,3.06-.14,4.02,0,.97.16,1.61.32,2.39.26.42-.02,1.34,0,2.41.48,1.06.48,2.11,1.47,2.5,2.54.44,1.06.3,2.19-.04,3.19-.17.45-.32.78-.47,1-.14.23-.22.35-.22.35,0,0-.09.12-.26.33-.19.2-.45.5-.83.79-.73.61-1.96,1.15-3.01,1.09-.49,0-1.09-.19-1.58-.45-.48-.24-.92-.61-1.26-1.05-.74-.85-1.01-1.9-1.15-2.36-.22-.9-.54-1.58-1.05-2.45-.47-.87-1.17-1.96-1.46-3.73Z"/>
    </g>
    <g>
      <path class="cls-1" d="M347.67,192.28c-1.02,3.24-1.75,7.74-.29,10.78,4.47,7.89,12.83-1.08,11.93-7.88-.23-6.23-8.97-10.64-11.56-3.12l-.08.21Z"/>
      <path class="cls-2" d="M347.67,192.28c-1.53.72-2.72,1.51-3.57,2.5-.84,1-1.39,2.22-1.44,3.94,0,.47-.02,1.17.09,2.09.12.94.29,2.02.86,3.43.15.38.33.75.53,1.05.19.31.39.66.61.94.43.58.93,1.19,1.6,1.76.63.58,1.48,1.1,2.39,1.5.95.37,1.99.58,3,.58,2.02-.03,3.66-.74,4.83-1.49,1.2-.76,2.05-1.59,2.71-2.32.66-.73,1.1-1.38,1.4-1.83.28-.46.45-.72.45-.72,0,0,.1-.15.27-.47.18-.32.43-.81.72-1.49.29-.68.61-1.58.86-2.72.24-1.15.42-2.58.21-4.34l.03.37c-.05-.55-.11-1.19-.24-1.87-.2-.65-.34-1.42-.69-2.11-.58-1.45-1.6-2.79-2.76-3.91-1.15-1.13-2.61-1.92-3.96-2.42-1.39-.46-2.72-.57-3.55-.49-2.54.17-4.43,1.78-4.92,3.39-.19.39-.23.8-.26,1.2-.03.4-.03.8.01,1.18.18.78.43,1.54.82,2.27.8-.34,1.51-.53,2.08-.69.32-.04.6-.06.85-.08.25-.02.46-.04.68.02.17.03.33.07.5.1l.33.19c.17.12.22.19.34.21.07,0,.25.02.56.11.31.15.77.33,1.16.75.84.77,1.22,1.88,1.22,2.44v.11l.03.25c.14,1.14-.22,2.34-.51,3.02-.3.71-.5,1.03-.5,1.03,0,0-.08.13-.23.37-.16.23-.39.57-.7.9-.31.34-.69.68-1.06.91-.37.25-.66.28-.7.28-.02-.02.04.05-.2-.15-.21-.16-.63-.75-.67-.91-.12-.27-.25-.83-.3-1.26-.06-.45-.07-.86-.08-1.14-.03-1.02-.25-1.94-.74-2.94-.48-1-1.21-2.09-2.06-3.55Z"/>
    </g>
  </g>
</svg>